<svg xmlns="http://www.w3.org/2000/svg" viewBox="0 0 720 400" font-family="ui-sans-serif,system-ui,sans-serif">
<rect width="720" height="400" fill="#FFFFFF"/>
<text x="64" y="24" font-size="13" font-weight="600" fill="#131A20">Surplus over the record-blind rule, during training</text>
<line x1="64.0" y1="55.4" x2="570.0" y2="55.4" stroke="#D4DCE1" stroke-width="1" stroke-dasharray="3 3"/>
<text x="578.0" y="58.4" font-size="9" fill="#8A97A2">the null: EV + counter</text>
<line x1="64.0" y1="120.2" x2="570.0" y2="120.2" stroke="#D4DCE1" stroke-width="1" stroke-dasharray="3 3"/>
<text x="578.0" y="123.2" font-size="9" fill="#8A97A2">null picks, accepts</text>
<line x1="64.0" y1="269.6" x2="570.0" y2="269.6" stroke="#D4DCE1" stroke-width="1" stroke-dasharray="3 3"/>
<text x="578.0" y="272.6" font-size="9" fill="#8A97A2">random picks, accepts</text>
<text x="64.0" y="370" font-size="10" text-anchor="middle" fill="#57646F">0</text>
<text x="190.5" y="370" font-size="10" text-anchor="middle" fill="#57646F">30</text>
<text x="317.0" y="370" font-size="10" text-anchor="middle" fill="#57646F">60</text>
<text x="443.5" y="370" font-size="10" text-anchor="middle" fill="#57646F">90</text>
<text x="570.0" y="370" font-size="10" text-anchor="middle" fill="#57646F">120</text>
<text x="317.0" y="388" font-size="10" text-anchor="middle" fill="#57646F">optimizer step</text>
<text x="54" y="58.4" font-size="10" text-anchor="end" fill="#57646F">+0</text>
<text x="54" y="123.2" font-size="10" text-anchor="end" fill="#57646F">-194</text>
<text x="54" y="272.6" font-size="10" text-anchor="end" fill="#57646F">-641</text>
<polygon points="127.2,237.7 190.5,258.3 253.8,241.3 317.0,240.9 380.2,248.9 443.5,247.7 506.8,251.6 570.0,256.2 570.0,307.2 506.8,301.0 443.5,299.8 380.2,299.2 317.0,291.4 253.8,292.8 190.5,311.8 127.2,287.2" fill="#A8322A" opacity="0.13"/>
<polyline points="127.2,262.4 190.5,285.1 253.8,267.0 317.0,266.1 380.2,274.1 443.5,273.8 506.8,276.3 570.0,281.7" fill="none" stroke="#A8322A" stroke-width="2"/>
<circle cx="127.2" cy="262.4" r="3" fill="#A8322A"/>
<circle cx="190.5" cy="285.1" r="3" fill="#A8322A"/>
<circle cx="253.8" cy="267.0" r="3" fill="#A8322A"/>
<circle cx="317.0" cy="266.1" r="3" fill="#A8322A"/>
<circle cx="380.2" cy="274.1" r="3" fill="#A8322A"/>
<circle cx="443.5" cy="273.8" r="3" fill="#A8322A"/>
<circle cx="506.8" cy="276.3" r="3" fill="#A8322A"/>
<circle cx="570.0" cy="281.7" r="3" fill="#A8322A"/>
<text x="564.0" y="270.7" text-anchor="end" font-size="10" font-weight="600" fill="#A8322A">run 2 · whole match</text>
<polygon points="127.2,262.5 190.5,274.0 253.8,284.8 253.8,338.6 190.5,327.2 127.2,311.1" fill="#0E6E6B" opacity="0.13"/>
<polyline points="127.2,286.8 190.5,300.6 253.8,311.7" fill="none" stroke="#0E6E6B" stroke-width="2"/>
<circle cx="127.2" cy="286.8" r="3" fill="#0E6E6B"/>
<circle cx="190.5" cy="300.6" r="3" fill="#0E6E6B"/>
<circle cx="253.8" cy="311.7" r="3" fill="#0E6E6B"/>
<text x="247.8" y="330.7" text-anchor="end" font-size="10" font-weight="600" fill="#0E6E6B">run 3 · eight rounds</text>
</svg>