<svg xmlns="http://www.w3.org/2000/svg" viewBox="0 0 760 330" width="760" height="330" font-family="ui-monospace,SFMono-Regular,Menlo,monospace">
<rect width="760" height="330" fill="#FFFFFF"/>
<text x="8" y="18" font-size="12" fill="#57646F">Whole matches, paired on the same seeds. Bars are one standard error.</text>
<line x1="635" y1="36" x2="635" y2="314" stroke="#0E6E6B" stroke-width="1" stroke-dasharray="3 3"/>
<text x="642" y="40" font-size="10.5" fill="#0E6E6B" text-anchor="start">the hand-written rule</text>
<line x1="585" y1="50" x2="585" y2="314" stroke="#8A97A2" stroke-width="1" stroke-dasharray="3 3"/>
<text x="578" y="54" font-size="10.5" fill="#8A97A2" text-anchor="end">quote sheet only</text>
<text x="154" y="78" font-size="12" fill="#131A20" text-anchor="end">gemini-3.7-flash</text>
<text x="154" y="90" font-size="9.5" fill="#8A97A2" text-anchor="end">n=24</text>
<line x1="512" y1="74" x2="568" y2="74" stroke="#A8322A" stroke-width="1.6"/>
<line x1="512" y1="70" x2="512" y2="78" stroke="#A8322A" stroke-width="1.6"/>
<line x1="568" y1="70" x2="568" y2="78" stroke="#A8322A" stroke-width="1.6"/>
<circle cx="540" cy="74" r="4" fill="#A8322A"/>
<text x="577" y="78" font-size="10.5" fill="#A8322A">-118</text>
<text x="154" y="112" font-size="12" fill="#131A20" text-anchor="end">gpt-5.6-terra</text>
<text x="154" y="124" font-size="9.5" fill="#8A97A2" text-anchor="end">n=12</text>
<line x1="479" y1="108" x2="588" y2="108" stroke="#A8322A" stroke-width="1.6"/>
<line x1="479" y1="104" x2="479" y2="112" stroke="#A8322A" stroke-width="1.6"/>
<line x1="588" y1="104" x2="588" y2="112" stroke="#A8322A" stroke-width="1.6"/>
<circle cx="533" cy="108" r="4" fill="#A8322A"/>
<text x="597" y="112" font-size="10.5" fill="#A8322A">-127</text>
<text x="154" y="146" font-size="12" fill="#131A20" text-anchor="end">gpt-5.6-sol</text>
<text x="154" y="158" font-size="9.5" fill="#8A97A2" text-anchor="end">n=10</text>
<line x1="451" y1="142" x2="573" y2="142" stroke="#A8322A" stroke-width="1.6"/>
<line x1="451" y1="138" x2="451" y2="146" stroke="#A8322A" stroke-width="1.6"/>
<line x1="573" y1="138" x2="573" y2="146" stroke="#A8322A" stroke-width="1.6"/>
<circle cx="512" cy="142" r="4" fill="#A8322A"/>
<text x="582" y="146" font-size="10.5" fill="#A8322A">-153</text>
<text x="154" y="180" font-size="12" fill="#131A20" text-anchor="end">claude-fable-5</text>
<text x="154" y="192" font-size="9.5" fill="#8A97A2" text-anchor="end">n=10</text>
<line x1="444" y1="176" x2="546" y2="176" stroke="#A8322A" stroke-width="1.6"/>
<line x1="444" y1="172" x2="444" y2="180" stroke="#A8322A" stroke-width="1.6"/>
<line x1="546" y1="172" x2="546" y2="180" stroke="#A8322A" stroke-width="1.6"/>
<circle cx="495" cy="176" r="4" fill="#A8322A"/>
<text x="555" y="180" font-size="10.5" fill="#A8322A">-174</text>
<text x="154" y="214" font-size="12" fill="#131A20" text-anchor="end">qwen3.8-max</text>
<text x="154" y="226" font-size="9.5" fill="#8A97A2" text-anchor="end">n=8</text>
<line x1="351" y1="210" x2="514" y2="210" stroke="#A8322A" stroke-width="1.6"/>
<line x1="351" y1="206" x2="351" y2="214" stroke="#A8322A" stroke-width="1.6"/>
<line x1="514" y1="206" x2="514" y2="214" stroke="#A8322A" stroke-width="1.6"/>
<circle cx="433" cy="210" r="4" fill="#A8322A"/>
<text x="523" y="214" font-size="10.5" fill="#A8322A">-251</text>
<text x="154" y="248" font-size="12" fill="#131A20" text-anchor="end">claude-haiku-4.5</text>
<text x="154" y="260" font-size="9.5" fill="#8A97A2" text-anchor="end">n=12</text>
<line x1="238" y1="244" x2="355" y2="244" stroke="#A8322A" stroke-width="1.6"/>
<line x1="238" y1="240" x2="238" y2="248" stroke="#A8322A" stroke-width="1.6"/>
<line x1="355" y1="240" x2="355" y2="248" stroke="#A8322A" stroke-width="1.6"/>
<circle cx="296" cy="244" r="4" fill="#A8322A"/>
<text x="364" y="248" font-size="10.5" fill="#A8322A">-421</text>
<text x="154" y="282" font-size="12" fill="#131A20" text-anchor="end">deepseek-chat</text>
<text x="154" y="294" font-size="9.5" fill="#8A97A2" text-anchor="end">n=12</text>
<line x1="183" y1="278" x2="323" y2="278" stroke="#A8322A" stroke-width="1.6"/>
<line x1="183" y1="274" x2="183" y2="282" stroke="#A8322A" stroke-width="1.6"/>
<line x1="323" y1="274" x2="323" y2="282" stroke="#A8322A" stroke-width="1.6"/>
<circle cx="253" cy="278" r="4" fill="#A8322A"/>
<text x="332" y="282" font-size="10.5" fill="#A8322A">-474</text>
</svg>